<?xml version="1.0" standalone="no"?><!DOCTYPE svg PUBLIC "-//W3C//DTD SVG 1.1//EN" "http://www.w3.org/Graphics/SVG/1.1/DTD/svg11.dtd"><svg t="1509526089052" class="icon" style="" viewBox="0 0 1024 1024" version="1.1" xmlns="http://www.w3.org/2000/svg" p-id="1413" xmlns:xlink="http://www.w3.org/1999/xlink" width="30" height="30"><defs><style type="text/css"></style></defs><path d="M783.36 568.32c-33.28 0-53.76 2.56-89.6 2.56 40.96-76.8 15.36-153.6-28.16-179.2 28.16-12.8 58.88-23.04 89.6-30.72 56.32 48.64 51.2 163.84 28.16 207.36z m-253.44 28.16c-33.28 0-61.44 2.56-89.6 2.56 28.16-71.68 10.24-156.16-28.16-179.2 35.84-12.8 51.2-20.48 89.6-30.72 53.76 46.08 51.2 166.4 28.16 207.36zM273.92 0s40.96 69.12 48.64 145.92C135.68 204.8 0 371.2 0 568.32c0 248.32 215.04 448 481.28 448s481.28-199.68 481.28-448c0-230.4-189.44-422.4-432.64-445.44-87.04-69.12-256-122.88-256-122.88z" fill="#1896EB" p-id="1414"></path></svg>